# xmcd
#
# Track frame offsets: 
#        180
#        15748
#        30001
#        47248
#        68549
#        91472
#        118579
#        139219
#        155643
#        176068
#        190374
#        215865
#        234899
#        251334
#
# Disc length: 3587 seconds
#
# Revision: 1
# Processed by: cddbd v1.5.2PL0 Copyright (c) Steve Scherf et al.
# Submitted via: ExactAudioCopy v1.0b3
#
DISCID=bc0e010e
DTITLE=Various Artist - Chesky Records - Women of Song
DYEAR=1997
DGENRE=Folk
TTITLE0=Ana Caram - Samba de Verao
TTITLE1=Christy Baron - Get to Get You Into My life
TTITLE2=Sara K. - If I Could Sing Your Blues
TTITLE3=Badi Assad - Num Pagode Em Planaltina
TTITLE4=Christy Baron - Round Midnight
TTITLE5=Sara K. - Brick House
TTITLE6=Ana Caram - Sonhando
TTITLE7=Rebecca Pidgeon - Spanish Harlem
TTITLE8=Sara K. - What You Don't Know
TTITLE9=Badi Assad - Batucada
TTITLE10=Chisty Baron - Columbus
TTITLE11=Ana Caram - A Voz De Morro
TTITLE12=Rebecca Pidgion - The Word Around Town
TTITLE13=Badi Assad - Quase Um Funk P'ra Badi
EXTD=Badi Assad, Ana Caram, Sara K., Christy Baron, Rebecca Pidgeon
EXTT0=
EXTT1=
EXTT2=
EXTT3=
EXTT4=
EXTT5=
EXTT6=
EXTT7=
EXTT8=
EXTT9=
EXTT10=
EXTT11=
EXTT12=
EXTT13=
PLAYORDER=
